<svg xmlns="http://www.w3.org/2000/svg" width="70" height="70" viewBox="0 0 70 70" fill="none">
  <rect x="0.5" y="0.5" width="69" height="69" rx="14.5" fill="#F25822" fill-opacity="0.25" stroke="black"/>
  <path d="M23.7778 25.2778H23.2778V25.7778V45.2222V45.7222H23.7778H46H46.5V45.2222V25.7778V25.2778H46H23.7778ZM39.1216 32.7883L39.4752 32.4347L39.1216 32.0812L37.4849 30.4444H42.7222V35.6818L41.0855 34.0451L40.7319 33.6915L40.3784 34.0451L35.3653 39.0582L32.773 36.4659L32.4195 36.1124L32.066 36.4658L28.4903 40.0402L27.2335 38.7833L32.4194 33.5975L35.0116 36.191L35.3652 36.5447L35.7188 36.1911L39.1216 32.7883ZM22.3889 23.5H47.3889C47.6246 23.5 47.8507 23.5937 48.0174 23.7603C48.1841 23.927 48.2778 24.1531 48.2778 24.3889V46.6111C48.2778 46.8469 48.1841 47.073 48.0174 47.2397C47.8507 47.4063 47.6246 47.5 47.3889 47.5H22.3889C22.1531 47.5 21.927 47.4063 21.7603 47.2397C21.5937 47.073 21.5 46.8469 21.5 46.6111V24.3889C21.5 24.1531 21.5937 23.927 21.7603 23.7603C21.927 23.5937 22.1531 23.5 22.3889 23.5Z" fill="#F25822" stroke="black"/>
</svg>