<svg xmlns="http://www.w3.org/2000/svg" width="70" height="70" viewBox="0 0 70 70" fill="none">
  <rect x="0.5" y="0.5" width="69" height="69" rx="14.5" fill="#149211" fill-opacity="0.28" stroke="black"/>
  <path d="M34.5737 46.4583H34.5735C34.5109 46.4583 34.4487 46.4473 34.3898 46.426C34.2763 46.3842 34.18 46.3056 34.1163 46.2028C34.0525 46.0997 34.0251 45.9781 34.0386 45.8576L34.0387 45.8561L34.8408 38.4707L34.901 37.9167H34.3437L28.2083 37.9167L28.2076 37.9167C28.1092 37.9168 28.0126 37.8902 27.9282 37.8395C27.8438 37.7889 27.7748 37.7163 27.7286 37.6294C27.6823 37.5426 27.6607 37.4447 27.6658 37.3465C27.671 37.2482 27.7029 37.1532 27.758 37.0717L27.7594 37.0696L35.9768 24.78C35.977 24.7797 35.9772 24.7794 35.9774 24.7791C36.0449 24.6795 36.1438 24.6052 36.2583 24.5681C36.3725 24.5309 36.4959 24.5329 36.6089 24.5735C36.7172 24.6142 36.8098 24.6884 36.8729 24.7855C36.9346 24.8804 36.9649 24.9922 36.9598 25.1052L36.1591 32.5297L36.0994 33.0833H36.6562L42.7917 33.0833L42.7924 33.0833C42.8908 33.0832 42.9874 33.1098 43.0718 33.1605C43.1562 33.2111 43.2252 33.2837 43.2714 33.3706C43.3176 33.4574 43.3393 33.5553 43.3341 33.6535C43.329 33.7518 43.2971 33.8468 43.242 33.9283L43.2406 33.9304L35.0232 46.22C35.023 46.2203 35.0228 46.2206 35.0226 46.2209C34.973 46.294 34.9063 46.3539 34.8282 46.3952C34.7498 46.4368 34.6624 46.4585 34.5737 46.4583ZM29.7404 36.0557L29.2212 36.8333H30.1562L35.4988 36.8333C35.4989 36.8333 35.4991 36.8333 35.4992 36.8333C35.5746 36.8336 35.6492 36.8496 35.7181 36.8803C35.787 36.911 35.8487 36.9558 35.8993 37.0117C35.9503 37.0685 35.9886 37.1354 36.0119 37.2081C36.0352 37.2809 36.0429 37.3578 36.0344 37.4338L36.0342 37.4357L35.5654 41.7586L36.4781 42.0905L41.2593 34.9447L41.7799 34.1667H40.8437L35.5 34.1667L35.497 34.1667C35.4205 34.1671 35.3449 34.1514 35.2749 34.1206C35.205 34.0897 35.1424 34.0444 35.0912 33.9876L34.7198 34.3222L35.0912 33.9876C35.0401 33.9308 35.0015 33.8638 34.9781 33.7911C34.9546 33.7183 34.9469 33.6414 34.9553 33.5654L34.9554 33.5643L35.4242 29.2414L34.5112 28.9099L29.7404 36.0557Z" fill="#149211" stroke="black"/>
</svg>