<svg xmlns="http://www.w3.org/2000/svg" width="70" height="70" viewBox="0 0 70 70" fill="none">
  <rect x="0.5" y="0.5" width="69" height="69" rx="14.5" fill="#FFCD1D" fill-opacity="0.24" stroke="black"/>
  <path d="M28.738 38.3225L28.7393 38.3238L35.4136 45.0086C35.414 45.009 35.4144 45.0094 35.4148 45.0098C35.6792 45.27 36.0352 45.4161 36.4063 45.4167C36.7736 45.4156 37.1256 45.2698 37.3862 45.0109C37.3864 45.0107 37.3866 45.0104 37.3869 45.0102L45.0105 37.3866L28.738 38.3225ZM28.738 38.3225C28.6491 38.2342 28.5937 38.1178 28.581 37.9933C28.581 37.9929 28.5809 37.9925 28.5809 37.9921L27.6646 28.2563C27.6646 28.2561 27.6645 28.256 27.6645 28.2559C27.6573 28.1767 27.6676 28.0969 27.6947 28.0221C27.7219 27.9472 27.7652 27.8792 27.8217 27.823L27.8217 27.823M28.738 38.3225L27.8217 27.823M27.8217 27.823L27.823 27.8217M27.8217 27.823L27.823 27.8217M27.823 27.8217C27.8792 27.7652 27.9472 27.7219 28.0221 27.6947C28.0969 27.6676 28.1767 27.6573 28.2559 27.6645C28.256 27.6645 28.2561 27.6646 28.2563 27.6646L37.9921 28.5809C37.9925 28.5809 37.9929 28.581 37.9933 28.581C38.1179 28.5937 38.2342 28.6491 38.3225 28.738L38.3238 28.7392M27.823 27.8217L38.3238 28.7392M38.3238 28.7392L45.0105 35.4155M38.3238 28.7392L45.0105 35.4155M45.0105 35.4155C45.0107 35.4157 45.0108 35.4158 45.0109 35.416M45.0105 35.4155L45.0109 35.416M45.0109 35.416C45.2715 35.6776 45.4179 36.0318 45.4179 36.401C45.4179 36.7703 45.2716 37.1244 45.011 37.386L45.0109 35.416ZM29.6586 37.5174L29.676 37.6956L29.8027 37.8223L36.0527 44.0723L36.4063 44.4259L36.7598 44.0723L44.1036 36.7286L44.4571 36.375L44.1036 36.0215L37.8536 29.7715L37.7261 29.644L37.5465 29.6272L29.4111 28.8668L28.8081 28.8104L28.867 29.4132L29.6586 37.5174Z" fill="#FFC700" stroke="black"/>
  <path d="M35 33.9375C35 34.5243 34.5243 35 33.9375 35C33.3507 35 32.875 34.5243 32.875 33.9375C32.875 33.3507 33.3507 32.875 33.9375 32.875C34.5243 32.875 35 33.3507 35 33.9375Z" fill="#FFC700" stroke="black"/>
</svg>